<?xml version="1.0" encoding="UTF-8" standalone="no"?><!DOCTYPE svg PUBLIC "-//W3C//DTD SVG 1.1//EN" "http://www.w3.org/Graphics/SVG/1.1/DTD/svg11.dtd"><svg width="100%" height="100%" viewBox="0 0 832 150" version="1.1" xmlns="http://www.w3.org/2000/svg" xmlns:xlink="http://www.w3.org/1999/xlink" xml:space="preserve" xmlns:serif="http://www.serif.com/" style="fill-rule:evenodd;clip-rule:evenodd;stroke-linejoin:round;stroke-miterlimit:2;"><clipPath id="_clip1"><rect id="Artboard6" x="-68.179" y="-89.336" width="899.809" height="327.119"/></clipPath><g clip-path="url(#_clip1)"><rect x="0" y="-0" width="831.63" height="149.145" style="fill:none;"/><g><path d="M16.197,47.225c14.092,16.144 43.477,17.3 45.542,43.49l-0.04,3.591l-1.971,-0.014c-2.19,0.205 -4.326,0.628 -6.385,1.247l-0.376,0.198l-0.074,-0.257c-3.574,-8.485 -11.226,-14.707 -24.693,-17.676c-5.451,7.788 -4.061,16.549 0.271,25.877l4.841,8.902l-1.966,4.536c-0.67,2.094 -1.141,4.287 -1.388,6.559l-0.025,3.322l-3.652,-3.241c-14.329,-13.693 -21.928,-29.071 -10.084,-76.534Z" style="fill:#d6eaaf;"/><path d="M69.328,11.675c7.368,25.348 43.742,40.418 16.058,75.976l-4.891,5.594l-0.175,-0.119l-3.197,-0.645l1.94,-3.46c7.104,-15.036 5.526,-29.476 -11.839,-42.724c-11.577,6.712 -12.279,20.49 -10.525,36.299l1.365,9.822l-3.51,0.708l-6.191,4.175l-3.414,-7.849c-7.633,-19.486 -8.071,-37.591 24.379,-77.777Z" style="fill:#95d1e2;"/><path d="M108.436,49.378c0.121,24.484 28.73,47.182 -5.012,71.852l-7.156,4.631l-0.308,-3.056l-0.117,-0.38l1.593,-1.582c10.163,-11.603 12.43,-24.885 0.312,-41.12c-9.025,2.28 -13.606,9.662 -16.369,19.348l-0.618,2.836l-4.343,-2.928l-8.72,-1.76l1.742,-7.311c4.576,-11.505 15.494,-23.979 38.996,-40.53Z" style="fill:#a8e2c5;"/><path d="M92.879,82.53c0.003,7.707 -2.461,15.386 -7.31,21.864c-0.378,-19.745 -8.532,-37.594 -21.644,-50.586c0.007,14.369 -5.111,28.687 -15.22,40.19c-1.472,-7.204 -5.065,-13.645 -10.115,-18.648c0.004,4.705 -1.805,9.413 -5.428,13.008l-3.619,3.589c-6.037,5.992 -9.055,13.835 -9.048,21.682c0.001,9.824 3.151,18.898 8.468,26.345l13.246,0c0,-15.438 8.288,-29.399 21.716,-39.493c-0.022,14.289 6.022,28.575 18.096,39.493l23.958,0c0.881,-4.642 1.376,-9.371 1.376,-14.118c-0,-16.924 -5.524,-32.24 -14.476,-43.326Z"/></g><text x="129.372px" y="117.852px" style="font-family:'BalooBhaijaan2-Bold', 'Baloo Bhaijaan 2';font-size:83.333px;">F<tspan x="170.789px " y="117.852px ">u</tspan>el<tspan x="280.539px " y="117.852px ">i</tspan>ng Adapt<tspan x="621.372px " y="117.852px ">a</tspan>tion</text></g></svg>