<?xml version="1.0" encoding="UTF-8" standalone="no"?>
<!DOCTYPE svg PUBLIC "-//W3C//DTD SVG 1.1//EN" "http://www.w3.org/Graphics/SVG/1.1/DTD/svg11.dtd">
<svg width="100%" height="100%" viewBox="0 0 200 36" version="1.1" xmlns="http://www.w3.org/2000/svg" xmlns:xlink="http://www.w3.org/1999/xlink" xml:space="preserve" xmlns:serif="http://www.serif.com/" style="fill-rule:evenodd;clip-rule:evenodd;stroke-linejoin:round;stroke-miterlimit:2;">
    <g transform="matrix(1,0,0,1,-5.32907e-15,-238.517)">
        <g id="Artboard6" transform="matrix(0.983059,0,0,0.455933,3.67567,164.375)">
            <clipPath id="_clip1">
                <rect x="-20.384" y="115.59" width="219.676" height="172.193"/>
            </clipPath>
            <g clip-path="url(#_clip1)">
                <rect x="-3.739" y="162.616" width="203.031" height="78.509" style="fill:none;"/>
                <g transform="matrix(0.46173,0,0,1.01271,-3.20349,-3.08192)">
                    <g transform="matrix(1.01723,0,0,1,-93.3403,-249.453)">
                        <path d="M99.038,437.617C106.362,446.008 121.636,446.609 122.71,460.222L122.689,462.089L121.664,462.081C120.526,462.188 119.416,462.408 118.346,462.729L118.15,462.833L118.112,462.699C116.254,458.289 112.277,455.054 105.277,453.511C102.444,457.559 103.166,462.113 105.418,466.962L107.934,471.589L106.912,473.946C106.564,475.035 106.319,476.175 106.191,477.356L106.178,479.083L104.279,477.398C96.831,470.28 92.881,462.287 99.038,437.617Z" style="fill:rgb(214,234,175);"/>
                    </g>
                    <g transform="matrix(1.01723,0,0,1,-93.3403,-283.368)">
                        <path d="M126.655,453.054C130.484,466.23 149.391,474.062 135.001,492.545L132.459,495.452L132.368,495.391L130.706,495.056L131.715,493.257C135.407,485.442 134.587,477.936 125.561,471.05C119.543,474.539 119.178,481.7 120.09,489.917L120.8,495.023L118.975,495.391L115.757,497.561L113.983,493.481C110.015,483.353 109.788,473.942 126.655,453.054Z" style="fill:rgb(149,209,226);"/>
                    </g>
                    <g transform="matrix(1.01723,0,0,1,-93.3403,-248.926)">
                        <path d="M146.982,438.209C147.045,450.935 161.915,462.733 144.377,475.556L140.658,477.963L140.498,476.375L140.436,476.177L141.264,475.355C146.547,469.324 147.725,462.42 141.427,453.981C136.735,455.167 134.355,459.004 132.918,464.038L132.597,465.512L130.34,463.99L125.807,463.075L126.713,459.276C129.091,453.296 134.766,446.812 146.982,438.209Z" style="fill:rgb(168,226,197);"/>
                    </g>
                    <g transform="matrix(1.01723,0,0,1,-93.3403,-239.287)">
                        <path d="M138.896,445.803C138.897,449.808 137.617,453.8 135.096,457.167C134.9,446.904 130.661,437.626 123.846,430.873C123.85,438.342 121.189,445.784 115.935,451.763C115.17,448.019 113.302,444.671 110.677,442.07C110.679,444.516 109.739,446.963 107.856,448.831L105.975,450.697C102.837,453.812 101.268,457.889 101.272,461.967C101.272,467.074 102.91,471.79 105.673,475.661L112.559,475.661C112.559,467.637 116.866,460.38 123.846,455.133C123.835,462.56 126.976,469.986 133.252,475.661L145.705,475.661C146.163,473.248 146.42,470.79 146.42,468.323C146.42,459.526 143.549,451.565 138.896,445.803Z"/>
                    </g>
                </g>
                <g transform="matrix(1.01723,0,0,2.1933,-64.6539,-78.4159)">
                    <text x="90.932px" y="138.179px" style="font-family:'BalooBhaijaan2-Bold', 'Baloo Bhaijaan 2';font-size:20px;">F<tspan x="100.872px " y="138.179px ">u</tspan>eling Adapt<tspan x="209.012px " y="138.179px ">a</tspan>tion</text>
                </g>
            </g>
        </g>
    </g>
</svg>
